PathFileType	4	(X/Y/Z)	T00_JumpTrial_0-2667.trc
DataRate	CameraRate	NumFrames	NumMarkers	Units	OrigDataRate	OrigDataStartFrame	OrigNumFrames
30	30	7	21	m	30	0	2667
Frame#	Time	RHip			RKnee			RAnkle			RBigToe			RSmallToe			RHeel			LHip			LKnee			LAnkle			LBigToe			LSmallToe			LHeel			Neck			Head			Nose			RShoulder			RElbow			RWrist			LShoulder			LElbow			LWrist		
		X1	Y1	Z1	X2	Y2	Z2	X3	Y3	Z3	X4	Y4	Z4	X5	Y5	Z5	X6	Y6	Z6	X7	Y7	Z7	X8	Y8	Z8	X9	Y9	Z9	X10	Y10	Z10	X11	Y11	Z11	X12	Y12	Z12	X13	Y13	Z13	X14	Y14	Z14	X15	Y15	Z15	X16	Y16	Z16	X17	Y17	Z17	X18	Y18	Z18	X19	Y19	Z19	X20	Y20	Z20	X21	Y21	Z21
1	0.03333333333333333	-4.274139382215704	0.49718772024102986	0.8989654466689887	-3.761622663166686	2.2515809418746193	0.9359245723335169	-5.0042673777756885	-1.211604500791465	0.5137272196575345	-3.967810750206678	2.7370655713343606	0.2701703288595111	-4.147583108541795	2.675429890355913	0.21594005285376996	-3.841295291403635	2.3189842724484855	0.5881266689430669	-3.5961128236852655	2.131367907454153	0.5181868425988665	-4.200382628037296	1.4963428986020846	0.9102246033844814	-4.8849006425336	-1.2294372697407356	0.3493013909910085	-4.277184573935123	2.9010990013730993	0.9303694430243545	-3.9980969622238205	2.658065409479151	1.01712919442642	-3.3667522989968224	2.0856175538886967	0.8871167861510126				-4.976844025815117	-1.1583940947249918	0.7225924447285618	-5.1874971307073015	-1.0883727717473497	0.37594754759177623	-5.015931912013594	-0.5414631116006999	1.7170544146447817	-4.738699673215272	0.638767496245619	0.6163152549082759	-4.082439093398942	1.4570520753152587	0.4008373173058543	-4.774510121503973	-0.7607354203732308	1.0038074091546199	-4.661133849301068	-0.35761943008143476	2.262330918467237	-4.2196322523818	0.4872733469777058	0.3660982062118951
2	0.06666666666666667	-4.278552651319711	0.4959407245421427	0.8994549730970979	-3.761540578665734	2.2518238101435983	0.9358189011681246	-5.149970087408645	-1.1965581084731887	0.5171240914594442	-4.055836730882127	2.7817672462394136	0.2613582279464256	-4.233535912889335	2.740493235227233	0.20789689651147045	-3.8399992275995327	2.317323264413509	0.5883343858119416	-3.5963333898015963	2.1296607292222003	0.5185978335981661	-4.20198385685282	1.4980391107774316	0.9100510325353763	-5.027096982412639	-1.2150166210975675	0.3500697461190404	-4.4297292010683735	2.99651826580568	0.9159276861299549	-3.9972063690684405	2.683231074799174	1.018061071187639	-3.3665541082543444	2.0838817528423634	0.8873105214167389				-4.977814550357896	-1.1580512869493187	0.7224875485242533	-5.188865985276027	-1.0883071787201644	0.37593080863844286	-4.547013285119539	-0.650661696133157	1.6897788099628666	-4.74262615426771	0.6393063666959264	0.6162819001060793	-4.140146469586286	1.4698386607762162	0.39674238947731066	-4.756984989472911	-0.7733663339919212	1.0033879567876958	-4.8379153142736495	-0.4500899327162468	2.2871301616572044	-4.222073176026403	0.48664364402641197	0.36600827640662803
3	0.1	-4.272082190120411	0.4993577899217974	0.8987191885888792	-3.8135008130713697	2.268275030502661	0.9354503665658153	-5.004838988275604	-1.2114449489357346	0.5137600085255938	-4.061335296169431	2.777238124440909	0.26294331617636135	-4.149738955395983	2.6759539360077067	0.21591882500514561	-3.838561945227748	2.3180009758354148	0.5882687322651596	-3.5969621944382792	2.1298573180196168	0.5187147612945188	-4.245453878949243	1.5290539207187908	0.9103627309305244	-4.885979675881124	-1.2296401464405393	0.34916618866224763	-4.427002590506291	2.994078604772012	0.9163590481047803	-4.0007424380871965	2.658732672126648	1.0172606451239248	-3.3650809475068004	2.0840232237354863	0.887156182739775				-4.97730526938528	-1.158260798571107	0.7225184502939971	-5.188394164942419	-1.0882096434730446	0.37592240515363484	-4.70999888802347	-0.642097010722876	1.6894496553587983	-4.739041128809441	0.6395325888285209	0.6160215374198431	-4.086426646659736	1.458399354005254	0.40031014816729515	-4.754840151384821	-0.7745254741435071	1.003371477829239	-4.972664805620313	-0.5184310134503853	2.3093757249399993	-4.219559573540793	0.4888171642297661	0.3656089861598928
4	0.13333333333333333	-4.272954168016066	0.49866733302592026	0.8988695669970587	-3.712125606365469	2.2348054824967347	0.9367472147920295	-4.998517527627448	-1.2020851231462761	0.5142083712920027	-4.1102699809105925	2.8157637301163394	0.24725233689305376	-4.200302881984761	2.713315850940932	0.20029623398100252	-3.768905263542705	2.2861715515236125	0.5922934020419128	-3.5940399225479585	2.1311128127583636	0.5178659863805324	-4.20227979949108	1.4973795342837948	0.9100456057580406	-4.885627771995993	-1.2293160882974794	0.3490448979817222	-4.4244382824440995	2.9952083678337806	0.915910124356574	-3.9957794434397607	2.6838478575957856	1.0178986607674565	-3.4086598842568754	2.116306173146856	0.8887377905880087				-4.977366399307169	-1.1581553453225724	0.7223713369087428	-5.046593154836789	-1.1042786839389334	0.3745990238871184	-5.040484815232671	-0.6974433874920923	1.7078810500182335	-4.735325083380268	0.6367473095133352	0.6162909879507735	-4.083158304459625	1.457042598475477	0.4004182062294853	-4.7562161864204135	-0.773589491195403	1.0030300738137519	-4.86534994295346	-0.6353304583275533	2.2741223503391685	-4.214395085851135	0.4859629609280125	0.36599247512681204
5	0.16666666666666666	-4.273286032572442	0.5025805645990835	0.8982348107029154	-3.7592864427692962	2.2488438637576023	0.9361231793750693	-4.999924168799368	-1.2017868880758797	0.5138513289714337	-4.054448204519703	2.77919954259785	0.2616937856237393	-4.147596053229743	2.673742771467802	0.21623944696023376	-3.842478435552896	2.3171726237167354	0.5887760077671375	-3.5967844104189908	2.1308022136166382	0.5183598747837237	-4.1984328320344915	1.4951578714751208	0.9102169403888395	-4.878848979236173	-1.219934581747042	0.34964874312883554	-4.272980946048545	2.9036381971211713	0.9296274339974228	-3.9963258518649	2.659213840163648	1.0168401048941889	-3.365227103184587	2.0811083032557547	0.8876798832304033				-4.976527738072365	-1.1585800875226506	0.7222650059632139	-5.047780905800523	-1.1041801718069952	0.37433437399062974	-4.881469025991163	-0.7734786295405235	1.6805500903871338	-4.598766374692668	0.5954682701388452	0.6106560927327646	-4.084406029269239	1.45683602453172	0.40040165208830086	-4.756075705974583	-0.7732096321997662	1.0030569669307094	-4.845717905921835	-0.7555671461152018	2.260664864721288	-4.215402791953864	0.48963174867389386	0.3653136182942726
6	0.2	-4.272587393707138	0.5004275252709697	0.8985864045986767	-3.7604660244652455	2.251046467442667	0.9357786653236648	-5.002813846873406	-1.1910161451346821	0.5136539657157418	-4.103921456391689	2.8206679418843095	0.2453655892234917	-4.111835269047776	2.670375942043534	0.2076646262625768	-3.840104827694438	2.315214183314607	0.5892406807128389	-3.484013242322602	2.0661414495368726	0.5364753336376309	-4.20090016437823	1.4981567097707573	0.909727201814874	-4.878811415538166	-1.2199307642952195	0.34951116554938294	-4.425971442272644	2.997253432275219	0.9156735998752646	-3.9998705381606947	2.6597879568800797	1.016978903395398	-3.3643452121234336	2.0830937546787056	0.8873157413714649				-4.977427005281952	-1.1585819952722844	0.7221697158446513	-5.048093721289852	-1.104184088033941	0.374238629198328	-5.026542757417809	-0.7580299341709928	1.7019441116261202	-4.639575937269663	0.6208212383545552	0.6094347395042278	-4.085336726142789	1.4578854670563712	0.4005296871603807	-4.755932876942924	-0.7738799053961929	1.0033147390298869	-4.890831441188381	-0.8406551442317571	2.25893052089875	-4.259182940745602	0.5152345543260423	0.3624190483124251
7	0.23333333333333334	-4.276817939855998	0.5015083701712191	0.898549791970935	-3.7597116844935186	2.2491452282773134	0.9361692115515861	-5.148208286040571	-1.185779353904597	0.49466044668969006	-3.9718267040392323	2.7422373509974407	0.2689573149808992	-4.231932943915356	2.7446681997443974	0.20671532062368614	-3.9136576914413768	2.3698816642785556	0.5860150274322922	-3.5968397825958958	2.1326814334034414	0.5179181294214174	-4.2488266910298	1.5315951650043904	0.909694476737367	-4.879921042920336	-1.219449291825115	0.3492292333522354	-4.273579648227477	2.903798384744885	0.9299440008843097	-3.9993169986816026	2.6585561689018324	1.0172366370017671	-3.364240659189267	2.0816077997396865	0.887684186799302				-4.975091367279916	-1.159292839174902	0.7220553627342093	-5.049422676786536	-1.1040227507282843	0.3739581684528024	-5.031082030987478	-0.7936056695963863	1.6772022004998777	-4.641157722625329	0.6196928250170616	0.6092632566996632	-4.142091472669066	1.4952881362091164	0.39672095385055084	-4.756726642927354	-0.774742091202084	1.003301920695199	-5.036188850396306	-0.9178415128240661	2.2347963911694744	-4.215780615425598	0.4901436044894163	0.3649220640499915
